# This file uses centimeters as units for non-parametric coordinates.

mtllib skybowl_001_LL.mtl
g default
v -0.866025 0.194296 0.500000
v 0.866025 0.194296 0.500000
v -0.000000 0.194296 -1.000000
v 0.000000 0.194296 1.000000
v 0.866025 0.194296 -0.500000
v -0.866025 0.194296 -0.500000
v -0.000000 -0.220046 0.000000
v -0.433013 -0.136543 0.250000
v 0.433013 -0.136543 0.250000
v -0.000000 -0.136543 -0.500000
v -0.225437 -0.145692 -0.130156
v -0.000000 -0.152882 0.244669
v 0.220323 -0.148406 -0.127204
vt 0.000000 0.250000
vt 0.866025 0.250000
vt 0.433013 1.000000
vt 0.433013 0.000000
vt 0.866025 0.750000
vt 0.000000 0.750000
vt 0.433013 0.500000
vt 0.216506 0.375000
vt 0.649519 0.375000
vt 0.433013 0.750000
vt 0.320294 0.565078
vt 0.433013 0.377665
vt 0.543174 0.563602
vn 0.003086 0.999966 0.007658
vn 0.380336 0.897748 -0.222245
vn -0.000000 0.924188 -0.381938
vn -0.380521 0.897886 -0.221371
vn -0.331504 0.923836 0.191394
vn -0.000849 0.897508 0.440997
vn 0.331935 0.923630 0.191643
vn 0.000000 0.833966 0.551816
vn 0.439035 0.861974 0.253477
vn 0.477887 0.833966 -0.275908
vn -0.000000 0.862343 -0.506324
vn -0.477887 0.833966 -0.275908
vn -0.438828 0.862114 0.253357
s 1
g pDisc7
usemtl lambert10SG
f 7/7/1 8/8/2 12/12/3
f 7/7/1 9/9/4 13/13/5
f 7/7/1 10/10/6 11/11/7
f 10/10/6 3/3/8 6/6/9
f 8/8/2 1/1/10 4/4/11
f 9/9/4 2/2/12 5/5/13
f 11/11/7 8/8/2 7/7/1
f 6/6/9 1/1/10 8/8/2
f 12/12/3 9/9/4 7/7/1
f 4/4/11 2/2/12 9/9/4
f 13/13/5 10/10/6 7/7/1
f 5/5/13 3/3/8 10/10/6
f 11/11/7 10/10/6 6/6/9
f 6/6/9 8/8/2 11/11/7
f 12/12/3 8/8/2 4/4/11
f 4/4/11 9/9/4 12/12/3
f 13/13/5 9/9/4 5/5/13
f 5/5/13 10/10/6 13/13/5
g default
v -0.866025 0.344296 0.500000
v 0.866025 0.344296 0.500000
v -0.000000 0.344296 -1.000000
v 0.000000 0.344296 1.000000
v 0.866025 0.344296 -0.500000
v -0.866025 0.344296 -0.500000
v -0.000000 -0.070046 0.000000
v -0.433013 0.013457 0.250000
v 0.433013 0.013457 0.250000
v -0.000000 0.013457 -0.500000
v -0.225437 0.004308 -0.130156
v -0.000000 -0.002882 0.244669
v 0.220323 0.001594 -0.127204
vt 0.000000 0.250000
vt 0.866025 0.250000
vt 0.433013 1.000000
vt 0.433013 0.000000
vt 0.866025 0.750000
vt 0.000000 0.750000
vt 0.433013 0.500000
vt 0.216506 0.375000
vt 0.649519 0.375000
vt 0.433013 0.750000
vt 0.320294 0.565078
vt 0.433013 0.377665
vt 0.543174 0.563602
vn 0.003086 0.999966 0.007658
vn 0.380336 0.897748 -0.222245
vn -0.000000 0.924188 -0.381938
vn -0.380521 0.897886 -0.221371
vn -0.331504 0.923836 0.191394
vn -0.000849 0.897508 0.440997
vn 0.331935 0.923630 0.191643
vn 0.000000 0.833966 0.551816
vn 0.439035 0.861974 0.253477
vn 0.477887 0.833966 -0.275908
vn -0.000000 0.862343 -0.506324
vn -0.477887 0.833966 -0.275908
vn -0.438828 0.862114 0.253357
s 1
g pDisc6
usemtl lambert9SG
f 20/20/14 21/21/15 25/25/16
f 20/20/14 22/22/17 26/26/18
f 20/20/14 23/23/19 24/24/20
f 23/23/19 16/16/21 19/19/22
f 21/21/15 14/14/23 17/17/24
f 22/22/17 15/15/25 18/18/26
f 24/24/20 21/21/15 20/20/14
f 19/19/22 14/14/23 21/21/15
f 25/25/16 22/22/17 20/20/14
f 17/17/24 15/15/25 22/22/17
f 26/26/18 23/23/19 20/20/14
f 18/18/26 16/16/21 23/23/19
f 24/24/20 23/23/19 19/19/22
f 19/19/22 21/21/15 24/24/20
f 25/25/16 21/21/15 17/17/24
f 17/17/24 22/22/17 25/25/16
f 26/26/18 22/22/17 18/18/26
f 18/18/26 23/23/19 26/26/18
g default
v -0.866025 0.338366 0.500000
v 0.866025 0.338366 0.500000
v -0.000000 0.338366 -1.000000
v 0.000000 0.338366 1.000000
v 0.866025 0.338366 -0.500000
v -0.866025 0.338366 -0.500000
v -0.000000 -0.075976 0.000000
v -0.433013 0.007528 0.250000
v 0.433013 0.007528 0.250000
v -0.000000 0.007528 -0.500000
v -0.225437 -0.001622 -0.130156
v -0.000000 -0.008812 0.244669
v 0.220323 -0.004336 -0.127204
vt 0.000000 0.250000
vt 0.866025 0.250000
vt 0.433013 1.000000
vt 0.433013 0.000000
vt 0.866025 0.750000
vt 0.000000 0.750000
vt 0.433013 0.500000
vt 0.216506 0.375000
vt 0.649519 0.375000
vt 0.433013 0.750000
vt 0.320294 0.565078
vt 0.433013 0.377665
vt 0.543174 0.563602
vn 0.003086 0.999966 0.007658
vn 0.380336 0.897748 -0.222245
vn -0.000000 0.924188 -0.381938
vn -0.380521 0.897886 -0.221371
vn -0.331504 0.923836 0.191394
vn -0.000849 0.897508 0.440997
vn 0.331935 0.923630 0.191643
vn 0.000000 0.833966 0.551816
vn 0.439035 0.861974 0.253477
vn 0.477887 0.833966 -0.275908
vn -0.000000 0.862343 -0.506324
vn -0.477887 0.833966 -0.275908
vn -0.438828 0.862114 0.253357
s 1
g pDisc11
usemtl lambert13SG
f 33/33/27 34/34/28 38/38/29
f 33/33/27 35/35/30 39/39/31
f 33/33/27 36/36/32 37/37/33
f 36/36/32 29/29/34 32/32/35
f 34/34/28 27/27/36 30/30/37
f 35/35/30 28/28/38 31/31/39
f 37/37/33 34/34/28 33/33/27
f 32/32/35 27/27/36 34/34/28
f 38/38/29 35/35/30 33/33/27
f 30/30/37 28/28/38 35/35/30
f 39/39/31 36/36/32 33/33/27
f 31/31/39 29/29/34 36/36/32
f 37/37/33 36/36/32 32/32/35
f 32/32/35 34/34/28 37/37/33
f 38/38/29 34/34/28 30/30/37
f 30/30/37 35/35/30 38/38/29
f 39/39/31 35/35/30 31/31/39
f 31/31/39 36/36/32 39/39/31
g default
v 0.866025 0.263888 0.500000
v -0.000000 0.263888 -1.000000
v -0.866025 0.263888 0.500000
v 0.866025 0.263888 -0.500000
v -0.866026 0.263888 -0.500000
v 0.000000 0.263888 1.000000
v 0.000000 -0.150454 0.000000
v 0.433013 -0.066951 0.250000
v -0.000000 -0.066951 -0.500000
v -0.433013 -0.066951 0.250000
v 0.000000 -0.076100 0.260312
v 0.211890 -0.083290 -0.122335
v -0.220323 -0.078814 -0.127203
vt 0.000000 0.250000
vt 0.866025 0.250000
vt 0.433013 1.000000
vt 0.433013 0.000000
vt 0.866025 0.750000
vt 0.000000 0.750000
vt 0.433013 0.500000
vt 0.216506 0.375000
vt 0.649519 0.375000
vt 0.433013 0.750000
vt 0.320294 0.565078
vt 0.433013 0.377665
vt 0.543174 0.563602
vn 0.005089 0.999966 -0.006502
vn -0.382637 0.897748 -0.218258
vn -0.330769 0.924188 0.190969
vn -0.001452 0.897886 0.440226
vn 0.331504 0.923836 0.191394
vn 0.382339 0.897508 -0.219763
vn -0.000000 0.923630 -0.383286
vn 0.477886 0.833966 -0.275908
vn -0.000000 0.861974 -0.506953
vn -0.477887 0.833966 -0.275908
vn -0.438490 0.862343 0.253162
vn 0.000000 0.833966 0.551816
vn 0.438828 0.862114 0.253357
s 1
g pDisc10
usemtl lambert12SG
f 46/46/40 47/47/41 51/51/42
f 46/46/40 48/48/43 52/52/44
f 46/46/40 49/49/45 50/50/46
f 49/49/45 42/42/47 45/45/48
f 47/47/41 40/40/49 43/43/50
f 48/48/43 41/41/51 44/44/52
f 50/50/46 47/47/41 46/46/40
f 45/45/48 40/40/49 47/47/41
f 51/51/42 48/48/43 46/46/40
f 43/43/50 41/41/51 48/48/43
f 52/52/44 49/49/45 46/46/40
f 44/44/52 42/42/47 49/49/45
f 50/50/46 49/49/45 45/45/48
f 45/45/48 47/47/41 50/50/46
f 51/51/42 47/47/41 43/43/50
f 43/43/50 48/48/43 51/51/42
f 52/52/44 48/48/43 44/44/52
f 44/44/52 49/49/45 52/52/44
g default
v -0.866025 0.458509 0.500000
v 0.866025 0.458509 0.500000
v -0.000000 0.458509 -1.000000
v 0.000000 0.458509 1.000000
v 0.866025 0.458509 -0.500000
v -0.866025 0.458509 -0.500000
v -0.000000 0.044167 0.000000
v -0.433013 0.127670 0.250000
v 0.433013 0.127670 0.250000
v -0.000000 0.127670 -0.500000
v -0.225437 0.118521 -0.130156
v -0.000000 0.111331 0.244669
v 0.220323 0.115807 -0.127204
vt 0.000000 0.250000
vt 0.866025 0.250000
vt 0.433013 1.000000
vt 0.433013 0.000000
vt 0.866025 0.750000
vt 0.000000 0.750000
vt 0.433013 0.500000
vt 0.216506 0.375000
vt 0.649519 0.375000
vt 0.433013 0.750000
vt 0.320294 0.565078
vt 0.433013 0.377665
vt 0.543174 0.563602
vn 0.003086 0.999966 0.007658
vn 0.380336 0.897748 -0.222245
vn -0.000000 0.924188 -0.381939
vn -0.380521 0.897886 -0.221371
vn -0.331504 0.923836 0.191394
vn -0.000849 0.897508 0.440997
vn 0.331935 0.923630 0.191643
vn 0.000000 0.833966 0.551816
vn 0.439035 0.861974 0.253477
vn 0.477887 0.833966 -0.275908
vn -0.000000 0.862343 -0.506324
vn -0.477887 0.833966 -0.275908
vn -0.438828 0.862114 0.253357
s 1
g pDisc9
usemtl lambert11SG
f 59/59/53 60/60/54 64/64/55
f 59/59/53 61/61/56 65/65/57
f 59/59/53 62/62/58 63/63/59
f 62/62/58 55/55/60 58/58/61
f 60/60/54 53/53/62 56/56/63
f 61/61/56 54/54/64 57/57/65
f 63/63/59 60/60/54 59/59/53
f 58/58/61 53/53/62 60/60/54
f 64/64/55 61/61/56 59/59/53
f 56/56/63 54/54/64 61/61/56
f 65/65/57 62/62/58 59/59/53
f 57/57/65 55/55/60 62/62/58
f 63/63/59 62/62/58 58/58/61
f 58/58/61 60/60/54 63/63/59
f 64/64/55 60/60/54 56/56/63
f 56/56/63 61/61/56 64/64/55
f 65/65/57 61/61/56 57/57/65
f 57/57/65 62/62/58 65/65/57
g default
v -0.866025 0.416297 0.500000
v 0.866025 0.416297 0.500000
v -0.000000 0.416297 -1.000000
v 0.000000 0.416297 1.000000
v 0.866025 0.416297 -0.500000
v -0.866025 0.416297 -0.500000
v -0.000000 0.001955 0.000000
v -0.433013 0.085459 0.250000
v 0.433013 0.085459 0.250000
v -0.000000 0.085459 -0.500000
v -0.225437 0.076309 -0.130156
v -0.000000 0.069119 0.244669
v 0.220323 0.073595 -0.127204
vt 0.000000 0.250000
vt 0.866025 0.250000
vt 0.433013 1.000000
vt 0.433013 0.000000
vt 0.866025 0.750000
vt 0.000000 0.750000
vt 0.433013 0.500000
vt 0.216506 0.375000
vt 0.649519 0.375000
vt 0.433013 0.750000
vt 0.320294 0.565078
vt 0.433013 0.377665
vt 0.543174 0.563602
vn 0.003086 0.999966 0.007658
vn 0.380336 0.897748 -0.222245
vn -0.000000 0.924188 -0.381939
vn -0.380521 0.897886 -0.221371
vn -0.331504 0.923836 0.191394
vn -0.000849 0.897508 0.440997
vn 0.331935 0.923630 0.191643
vn 0.000000 0.833966 0.551816
vn 0.439035 0.861974 0.253477
vn 0.477887 0.833966 -0.275908
vn -0.000000 0.862343 -0.506324
vn -0.477887 0.833966 -0.275908
vn -0.438828 0.862114 0.253357
s 1
g pDisc8
usemtl lambert12SG
f 72/72/66 73/73/67 77/77/68
f 72/72/66 74/74/69 78/78/70
f 72/72/66 75/75/71 76/76/72
f 75/75/71 68/68/73 71/71/74
f 73/73/67 66/66/75 69/69/76
f 74/74/69 67/67/77 70/70/78
f 76/76/72 73/73/67 72/72/66
f 71/71/74 66/66/75 73/73/67
f 77/77/68 74/74/69 72/72/66
f 69/69/76 67/67/77 74/74/69
f 78/78/70 75/75/71 72/72/66
f 70/70/78 68/68/73 75/75/71
f 76/76/72 75/75/71 71/71/74
f 71/71/74 73/73/67 76/76/72
f 77/77/68 73/73/67 69/69/76
f 69/69/76 74/74/69 77/77/68
f 78/78/70 74/74/69 70/70/78
f 70/70/78 75/75/71 78/78/70
g default
v -0.866025 0.494296 0.500000
v 0.866025 0.494296 0.500000
v -0.000000 0.494296 -1.000000
v 0.000000 0.494296 1.000000
v 0.866025 0.494296 -0.500000
v -0.866025 0.494296 -0.500000
v -0.000000 0.079954 0.000000
v -0.433013 0.163457 0.250000
v 0.433013 0.163457 0.250000
v -0.000000 0.163457 -0.500000
v -0.225437 0.154308 -0.130156
v -0.000000 0.147118 0.244669
v 0.220323 0.151594 -0.127204
vt 0.000000 0.250000
vt 0.866025 0.250000
vt 0.433013 1.000000
vt 0.433013 0.000000
vt 0.866025 0.750000
vt 0.000000 0.750000
vt 0.433013 0.500000
vt 0.216506 0.375000
vt 0.649519 0.375000
vt 0.433013 0.750000
vt 0.320294 0.565078
vt 0.433013 0.377665
vt 0.543174 0.563602
vn 0.003086 0.999966 0.007658
vn 0.380336 0.897748 -0.222245
vn -0.000000 0.924188 -0.381938
vn -0.380521 0.897886 -0.221371
vn -0.331504 0.923836 0.191394
vn -0.000849 0.897508 0.440997
vn 0.331935 0.923630 0.191643
vn 0.000000 0.833966 0.551816
vn 0.439035 0.861974 0.253477
vn 0.477887 0.833966 -0.275908
vn -0.000000 0.862343 -0.506324
vn -0.477887 0.833966 -0.275908
vn -0.438828 0.862114 0.253357
s 1
g pDisc5
usemtl lambert8SG
f 85/85/79 86/86/80 90/90/81
f 85/85/79 87/87/82 91/91/83
f 85/85/79 88/88/84 89/89/85
f 88/88/84 81/81/86 84/84/87
f 86/86/80 79/79/88 82/82/89
f 87/87/82 80/80/90 83/83/91
f 89/89/85 86/86/80 85/85/79
f 84/84/87 79/79/88 86/86/80
f 90/90/81 87/87/82 85/85/79
f 82/82/89 80/80/90 87/87/82
f 91/91/83 88/88/84 85/85/79
f 83/83/91 81/81/86 88/88/84
f 89/89/85 88/88/84 84/84/87
f 84/84/87 86/86/80 89/89/85
f 90/90/81 86/86/80 82/82/89
f 82/82/89 87/87/82 90/90/81
f 91/91/83 87/87/82 83/83/91
f 83/83/91 88/88/84 91/91/83
g default
v -0.866025 0.658716 0.500000
v 0.866025 0.658716 0.500000
v -0.000000 0.658716 -1.000000
v 0.000000 0.658716 1.000000
v 0.866025 0.658716 -0.500000
v -0.866025 0.658716 -0.500000
v -0.000000 0.244374 0.000000
v -0.433013 0.327878 0.250000
v 0.433013 0.327878 0.250000
v -0.000000 0.327878 -0.500000
v -0.225437 0.318729 -0.130156
v -0.000000 0.311539 0.244669
v 0.220323 0.316015 -0.127204
vt 0.000000 0.250000
vt 0.866025 0.250000
vt 0.433013 1.000000
vt 0.433013 0.000000
vt 0.866025 0.750000
vt 0.000000 0.750000
vt 0.433013 0.500000
vt 0.216506 0.375000
vt 0.649519 0.375000
vt 0.433013 0.750000
vt 0.320294 0.565078
vt 0.433013 0.377665
vt 0.543174 0.563602
vn 0.003086 0.999966 0.007658
vn 0.380336 0.897748 -0.222245
vn -0.000000 0.924188 -0.381939
vn -0.380521 0.897886 -0.221371
vn -0.331504 0.923836 0.191394
vn -0.000849 0.897508 0.440997
vn 0.331935 0.923630 0.191643
vn 0.000000 0.833966 0.551816
vn 0.439035 0.861974 0.253477
vn 0.477887 0.833966 -0.275908
vn -0.000000 0.862343 -0.506324
vn -0.477887 0.833966 -0.275908
vn -0.438828 0.862114 0.253357
s 1
g pDisc4
usemtl lambert4SG
f 98/98/92 99/99/93 103/103/94
f 98/98/92 100/100/95 104/104/96
f 98/98/92 101/101/97 102/102/98
f 101/101/97 94/94/99 97/97/100
f 99/99/93 92/92/101 95/95/102
f 100/100/95 93/93/103 96/96/104
f 102/102/98 99/99/93 98/98/92
f 97/97/100 92/92/101 99/99/93
f 103/103/94 100/100/95 98/98/92
f 95/95/102 93/93/103 100/100/95
f 104/104/96 101/101/97 98/98/92
f 96/96/104 94/94/99 101/101/97
f 102/102/98 101/101/97 97/97/100
f 97/97/100 99/99/93 102/102/98
f 103/103/94 99/99/93 95/95/102
f 95/95/102 100/100/95 103/103/94
f 104/104/96 100/100/95 96/96/104
f 96/96/104 101/101/97 104/104/96
